<?xml version="1.0" encoding="utf-8"?>
<!-- Generator: Adobe Illustrator 19.2.0, SVG Export Plug-In . SVG Version: 6.00 Build 0)  -->
<svg version="1.1" id="Layer_1" xmlns="http://www.w3.org/2000/svg" xmlns:xlink="http://www.w3.org/1999/xlink" x="0px" y="0px"
	 viewBox="0 0 10 10" style="enable-background:new 0 0 10 10;" xml:space="preserve">
<style type="text/css">
	.st0{fill:#0D69B1;}
	.st1{fill:#FFFFFF;}
</style>
<path class="st0" d="M1.7,1.3C1.8,1.6,1.6,2,1.2,2.2C0.8,2.3,0.4,2.1,0.3,1.7c-0.1-0.2-0.1-0.3,0-0.5C0.4,0.9,0.8,0.4,1,0.1
	C1.2,0.4,1.5,0.9,1.7,1.3"/>
<path class="st1" d="M0.5,1.4c0,0.4,0.4,0.7,0.8,0.5c0.1-0.1,0.1-0.2,0-0.1C0.9,1.8,0.8,1.6,0.6,1.4C0.6,1.3,0.5,1.3,0.5,1.4"/>
<path class="st0" d="M5.7,1.3C5.8,1.6,5.6,2,5.2,2.2C4.9,2.3,4.5,2.1,4.3,1.7c-0.1-0.2-0.1-0.3,0-0.5C4.5,0.9,4.8,0.4,5,0.1
	C5.2,0.4,5.5,0.9,5.7,1.3"/>
<path class="st1" d="M4.5,1.4c0,0.4,0.4,0.7,0.8,0.5c0.1-0.1,0.1-0.2,0-0.1C5,1.8,4.8,1.6,4.6,1.4C4.6,1.3,4.5,1.3,4.5,1.4"/>
<path class="st0" d="M9.7,1.3C9.8,1.6,9.6,2,9.2,2.2C8.9,2.3,8.5,2.1,8.3,1.7c-0.1-0.2-0.1-0.3,0-0.5C8.5,0.9,8.8,0.4,9,0.1
	C9.2,0.4,9.5,0.9,9.7,1.3"/>
<path class="st1" d="M8.5,1.4c0,0.4,0.4,0.7,0.8,0.5c0.1-0.1,0.1-0.2,0-0.1C9,1.8,8.8,1.6,8.6,1.4C8.6,1.3,8.5,1.3,8.5,1.4"/>
<path class="st0" d="M1.7,8.9c0.1,0.4-0.1,0.8-0.4,0.9S0.4,9.8,0.3,9.4c-0.1-0.2-0.1-0.3,0-0.5C0.4,8.6,0.8,8.1,1,7.8
	C1.2,8.1,1.5,8.6,1.7,8.9"/>
<path class="st1" d="M0.5,9.1c0,0.4,0.4,0.7,0.8,0.5c0.1-0.1,0.1-0.2,0-0.1C0.9,9.5,0.8,9.3,0.6,9C0.6,8.9,0.5,9,0.5,9.1"/>
<path class="st0" d="M5.7,8.9c0.1,0.4-0.1,0.8-0.4,0.9C4.9,10,4.5,9.8,4.3,9.4c-0.1-0.2-0.1-0.3,0-0.5C4.5,8.6,4.8,8.1,5,7.8
	C5.2,8.1,5.5,8.6,5.7,8.9"/>
<path class="st1" d="M4.5,9.1c0,0.4,0.4,0.7,0.8,0.5c0.1-0.1,0.1-0.2,0-0.1C5,9.5,4.8,9.3,4.6,9C4.6,8.9,4.5,9,4.5,9.1"/>
<path class="st0" d="M9.7,8.9c0.1,0.4-0.1,0.8-0.4,0.9C8.9,10,8.5,9.8,8.3,9.4c-0.1-0.2-0.1-0.3,0-0.5C8.5,8.6,8.8,8.1,9,7.8
	C9.2,8.1,9.5,8.6,9.7,8.9"/>
<path class="st1" d="M8.5,9.1c0,0.4,0.4,0.7,0.8,0.5c0.1-0.1,0.1-0.2,0-0.1C9,9.5,8.8,9.3,8.6,9C8.6,8.9,8.5,9,8.5,9.1"/>
<path class="st0" d="M1.7,5.1C1.8,5.5,1.6,5.9,1.2,6C0.8,6.2,0.4,6,0.3,5.6c-0.1-0.2-0.1-0.3,0-0.5C0.4,4.7,0.8,4.3,1,3.9
	C1.2,4.3,1.5,4.7,1.7,5.1"/>
<path class="st1" d="M0.5,5.3c0,0.4,0.4,0.7,0.8,0.5c0.1-0.1,0.1-0.2,0-0.1C0.9,5.6,0.8,5.5,0.6,5.2C0.6,5.1,0.5,5.2,0.5,5.3"/>
<path class="st0" d="M5.7,5.1C5.8,5.5,5.6,5.9,5.2,6C4.9,6.2,4.5,6,4.3,5.6c-0.1-0.2-0.1-0.3,0-0.5C4.5,4.7,4.8,4.3,5,3.9
	C5.2,4.3,5.5,4.7,5.7,5.1"/>
<path class="st1" d="M4.5,5.3c0,0.4,0.4,0.7,0.8,0.5c0.1-0.1,0.1-0.2,0-0.1C5,5.6,4.8,5.5,4.6,5.2C4.6,5.1,4.5,5.2,4.5,5.3"/>
<path class="st0" d="M9.7,5.1C9.8,5.5,9.6,5.9,9.2,6C8.9,6.2,8.5,6,8.3,5.6c-0.1-0.2-0.1-0.3,0-0.5C8.5,4.7,8.8,4.3,9,3.9
	C9.2,4.3,9.5,4.7,9.7,5.1"/>
<path class="st1" d="M8.5,5.3c0,0.4,0.4,0.7,0.8,0.5c0.1-0.1,0.1-0.2,0-0.1C9,5.6,8.8,5.5,8.6,5.2C8.6,5.1,8.5,5.2,8.5,5.3"/>
</svg>
