<?xml version="1.0" encoding="utf-8"?>
<!-- Generator: Adobe Illustrator 19.2.0, SVG Export Plug-In . SVG Version: 6.00 Build 0)  -->
<svg version="1.1" id="Layer_1" xmlns="http://www.w3.org/2000/svg" xmlns:xlink="http://www.w3.org/1999/xlink" x="0px" y="0px"
	 viewBox="0 0 10 10" style="enable-background:new 0 0 10 10;" xml:space="preserve">
<style type="text/css">
	.st0{fill:#0D69B1;}
	.st1{fill:#FFFFFF;}
</style>
<path class="st0" d="M1.4,1.2c0.1,0.2,0,0.4-0.2,0.5s-0.4,0-0.5-0.2c0-0.1,0-0.2,0-0.3C0.7,1,0.9,0.8,1,0.6C1.1,0.8,1.3,1,1.4,1.2"
	/>
<path class="st1" d="M0.7,1.3c0,0.2,0.2,0.4,0.5,0.3c0.1,0,0-0.1,0-0.1C1,1.5,0.9,1.4,0.7,1.3C0.8,1.2,0.7,1.2,0.7,1.3"/>
<path class="st0" d="M5.4,1.2c0.1,0.2,0,0.4-0.2,0.5s-0.4,0-0.5-0.2c0-0.1,0-0.2,0-0.3C4.7,1,4.9,0.8,5,0.6C5.1,0.8,5.3,1,5.4,1.2"
	/>
<path class="st1" d="M4.8,1.3c0,0.2,0.2,0.4,0.5,0.3c0.1,0,0-0.1,0-0.1C5,1.5,4.9,1.4,4.8,1.3C4.8,1.2,4.7,1.2,4.8,1.3"/>
<path class="st0" d="M9.4,1.2c0.1,0.2,0,0.4-0.2,0.5s-0.4,0-0.5-0.2c0-0.1,0-0.2,0-0.3C8.7,1,8.9,0.8,9,0.6C9.1,0.8,9.3,1,9.4,1.2"
	/>
<path class="st1" d="M8.7,1.3c0,0.2,0.2,0.4,0.5,0.3c0.1,0,0-0.1,0-0.1C9,1.5,8.9,1.4,8.7,1.3C8.8,1.2,8.7,1.2,8.7,1.3"/>
<path class="st0" d="M1.4,9c0.1,0.2,0,0.4-0.2,0.5c-0.2,0.1-0.4,0-0.5-0.2c0-0.1,0-0.2,0-0.3C0.7,8.8,0.9,8.6,1,8.4
	C1.1,8.6,1.3,8.8,1.4,9"/>
<path class="st1" d="M0.7,9.1c0,0.2,0.2,0.4,0.5,0.3c0.1,0,0-0.1,0-0.1C1,9.3,0.9,9.2,0.7,9.1C0.8,9,0.7,9.1,0.7,9.1"/>
<path class="st0" d="M5.4,9c0.1,0.2,0,0.4-0.2,0.5c-0.2,0.1-0.4,0-0.5-0.2c0-0.1,0-0.2,0-0.3C4.7,8.8,4.9,8.6,5,8.4
	C5.1,8.6,5.3,8.8,5.4,9"/>
<path class="st1" d="M4.8,9.1c0,0.2,0.2,0.4,0.5,0.3c0.1,0,0-0.1,0-0.1C5,9.3,4.9,9.2,4.8,9.1C4.8,9,4.7,9.1,4.8,9.1"/>
<path class="st0" d="M9.4,9c0.1,0.2,0,0.4-0.2,0.5c-0.2,0.1-0.4,0-0.5-0.2c0-0.1,0-0.2,0-0.3C8.7,8.8,8.9,8.6,9,8.4
	C9.1,8.6,9.3,8.8,9.4,9"/>
<path class="st1" d="M8.7,9.1c0,0.2,0.2,0.4,0.5,0.3c0.1,0,0-0.1,0-0.1C9,9.3,8.9,9.2,8.7,9.1C8.8,9,8.7,9.1,8.7,9.1"/>
<path class="st0" d="M1.4,5.1c0.1,0.2,0,0.4-0.2,0.5c-0.2,0.1-0.4,0-0.5-0.2c0-0.1,0-0.2,0-0.3C0.7,4.9,0.9,4.7,1,4.5
	C1.1,4.7,1.3,4.9,1.4,5.1"/>
<path class="st1" d="M0.7,5.2c0,0.2,0.2,0.4,0.5,0.3c0.1,0,0-0.1,0-0.1C1,5.4,0.9,5.3,0.7,5.2C0.8,5.1,0.7,5.2,0.7,5.2"/>
<path class="st0" d="M5.4,5.1c0.1,0.2,0,0.4-0.2,0.5c-0.2,0.1-0.4,0-0.5-0.2c0-0.1,0-0.2,0-0.3C4.7,4.9,4.9,4.7,5,4.5
	C5.1,4.7,5.3,4.9,5.4,5.1"/>
<path class="st1" d="M4.8,5.2c0,0.2,0.2,0.4,0.5,0.3c0.1,0,0-0.1,0-0.1C5,5.4,4.9,5.3,4.8,5.2C4.8,5.1,4.7,5.2,4.8,5.2"/>
<path class="st0" d="M9.4,5.1c0.1,0.2,0,0.4-0.2,0.5c-0.2,0.1-0.4,0-0.5-0.2c0-0.1,0-0.2,0-0.3C8.7,4.9,8.9,4.7,9,4.5
	C9.1,4.7,9.3,4.9,9.4,5.1"/>
<path class="st1" d="M8.7,5.2c0,0.2,0.2,0.4,0.5,0.3c0.1,0,0-0.1,0-0.1C9,5.4,8.9,5.3,8.7,5.2C8.8,5.1,8.7,5.2,8.7,5.2"/>
</svg>
